# xmcd CD database file
#
# Track frame offsets:
#	152
#	16092
#	39212
#	53917
#	75907
#	93205
#	117617
#	131535
#	149255
#	164065
#
# Disc length: 2473 seconds
#
# Revision: 2
# Processed by: cddbd v1.4PL0 Copyright (c) Steve Scherf et al.
# Submitted via: CDex 1.50beta10
#
DISCID=7809a70a
DTITLE=Artie "Blues Boy" White - Dark End of the Street
DYEAR=1991
DGENRE=Blues
TTITLE0=Tore Up
TTITLE1=Clock Don't Tick
TTITLE2=Nite Before Pay Day
TTITLE3=Not in the Begging Business
TTITLE4=Somebody Changed My Sweet Baby's Mind
TTITLE5=Dark End of the Street
TTITLE6=Hit the Nail on the Head
TTITLE7=I Intend to Take Your Place
TTITLE8=Darlin'  You Know I Love You
TTITLE9=I'm Mean
EXTD=Submitted By WinSkol\n\nBlues\n YEAR: 1991
EXTT0=
EXTT1=
EXTT2=
EXTT3=
EXTT4=
EXTT5=
EXTT6=
EXTT7=
EXTT8=
EXTT9=
PLAYORDER=
